<svg version="1.2" xmlns="http://www.w3.org/2000/svg" viewBox="0 0 126 232" width="126" height="232">
	<title>rocket</title>
	<style>
		.s0 { opacity: .1;fill: #1d1d1b } 
		.s1 { fill: #e93a4c } 
		.s2 { fill: #f9b233 } 
		.s3 { fill: #ffffff } 
		.s4 { fill: #bf303e } 
		.s5 { fill: #1d1d1b } 
		.s6 { fill: #ededed } 
		.s7 { fill: #b88325 } 
		.s8 { fill: #ff475a } 
	</style>
	<g id="&lt;Group&gt;">
		<path id="&lt;Path&gt;" class="s0" d="m87.5 212.5c12.2 7 12.2 18.5 0 25.5-12.2 7.1-32 7.1-44.2 0-12.2-7-12.2-18.5 0-25.5 12.2-7 32-7 44.2 0z"/>
		<g id="&lt;Group&gt;">
			<path id="&lt;Path&gt;" class="s1" d="m53.6 171.9q-0.2 2.1-0.2 5c0 16.3 12 46.9 12 46.9 0 0 12-30.6 12-46.9q0-2.9-0.2-5z"/>
			<path id="&lt;Path&gt;" class="s2" d="m57.4 171.9c0.6 10.4 4.9 30 8 36 3.1-6 7.4-25.6 8-36z"/>
			<path id="&lt;Path&gt;" class="s3" d="m61.8 171.9c0.8 7.4 2.1 16.7 3.6 20.3 1.5-3.6 2.8-12.9 3.6-20.3z"/>
		</g>
		<g id="&lt;Group&gt;">
			<g id="&lt;Group&gt;">
				<g id="&lt;Group&gt;">
					<path id="&lt;Path&gt;" class="s4" d="m90.8 140.5l-3.4-1.9 0.7 17.4 3.4 1.9z"/>
				</g>
				<g id="&lt;Group&gt;">
					<path id="&lt;Path&gt;" class="s1" d="m86.1 105.3l-3.4-2 1.6 34.5 3.4 2z"/>
				</g>
				<g id="&lt;Group&gt;">
					<path id="&lt;Path&gt;" class="s1" d="m107.8 114.9l-3.4-2-21.7-9.6 3.4 2z"/>
				</g>
				<g id="&lt;Group&gt;">
					<path id="&lt;Path&gt;" class="s1" d="m107.8 114.9l-21.7-9.6 1.6 34.5 3.1 0.7 0.7 17.4 9.1 0.2c6.1-14.3 8.4-30.3 7.2-43.2z"/>
				</g>
			</g>
		</g>
		<g id="&lt;Group&gt;">
			<g id="&lt;Group&gt;">
				<g id="&lt;Group&gt;">
					<path id="&lt;Path&gt;" class="s4" d="m40 140.5l3.4-1.9-0.7 17.4-3.4 1.9z"/>
				</g>
				<g id="&lt;Group&gt;">
					<path id="&lt;Path&gt;" class="s1" d="m44.8 105.3l3.4-2-1.6 34.5-3.4 2z"/>
				</g>
				<g id="&lt;Group&gt;">
					<path id="&lt;Path&gt;" class="s1" d="m23.1 114.9l3.4-2 21.7-9.6-3.4 2z"/>
				</g>
				<g id="&lt;Group&gt;">
					<path id="&lt;Path&gt;" class="s1" d="m23.1 114.9l21.7-9.6-1.6 34.5-3.2 0.7-0.7 17.4-9 0.2c-6.2-14.3-8.5-30.3-7.2-43.2z"/>
				</g>
			</g>
		</g>
		<g id="&lt;Group&gt;">
			<path id="&lt;Path&gt;" class="s5" d="m83.3 90.1c3.4 19.6 3.8 56.7 1.4 76.4-0.4 2.6-2.6 5.2-6.4 7.2-7.6 4-18.2 4-25.9 0-3.8-2-6.1-4.7-6.4-7.3-2.3-19.7-1.7-56.8 1.7-76.4-0.5 2.7 0.9 5.3 4.5 7.3 7 4 19.8 4 26.8 0 3.4-2 4.8-4.6 4.3-7.2z"/>
		</g>
		<path id="&lt;Path&gt;" class="s1" d="m65.6 15.2c0 0-18.2 13.1-23.6 38.3-2.8 12.7 10.5 23.6 23.5 23.6q0.1 0 0.1 0 0.1 0 0.2 0c13 0 26.2-10.9 23.5-23.6-5.5-25.2-23.7-38.3-23.7-38.3z"/>
		<g id="&lt;Group&gt;">
			<path id="&lt;Path&gt;" class="s6" d="m89.1 53.6c4.5 26 5 75 1.8 101.1-0.5 3.5-3.4 6.9-8.4 9.6-10.1 5.2-24.1 5.2-34.3-0.1-5-2.6-8.1-6.1-8.5-9.6-3.1-26.1-2.3-75.2 2.3-101.1-0.7 3.5 1.2 7 5.9 9.6 9.3 5.4 26.2 5.4 35.4 0 4.6-2.6 6.4-6 5.8-9.5z"/>
		</g>
		<g id="&lt;Group&gt;">
			<path id="&lt;Compound Path&gt;" fill-rule="evenodd" class="s7" d="m78.7 104.8v2.7c0 4.3-2.8 6.9-8.1 7.7v4.9h-4.9v-4.6h-2.8v4.6h-4.9v-4.6h-3.9v-33.6h3.9v-4.8h4.9v4.8h2.8v-4.8h4.9v5.1c5 0.8 7.3 3.3 7.3 7.4v1.2c0 3.5-1.6 5.7-5.2 6.8 4.3 1.1 6 3.6 6 7.2zm-16.7-9.2h3.1c3 0 4.8-0.9 4.8-3.6v-1.9c0-2.4-1.2-3.4-4-3.4h-3.9zm8.7 8.9c0-3.2-1.5-4.1-5.1-4.1h-3.6v10.3h4.6c2.7 0 4.1-0.8 4.1-3.3z"/>
			<path id="&lt;Compound Path&gt;" fill-rule="evenodd" class="s2" d="m78.7 106.4v2.7c0 4.3-2.8 6.9-8.1 7.7v4.9h-4.9v-4.6h-2.8v4.6h-4.9v-4.6h-3.9v-33.6h3.9v-4.8h4.9v4.8h2.8v-4.8h4.9v5.1c5 0.8 7.3 3.3 7.3 7.4v1.2c0 3.5-1.6 5.7-5.2 6.8 4.3 1.1 6 3.6 6 7.2zm-16.7-9.2h3.1c3 0 4.8-0.9 4.8-3.6v-1.9c0-2.4-1.2-3.4-4-3.4h-3.9zm8.7 8.9c0-3.2-1.5-4.1-5.1-4.1h-3.6v10.3h4.6c2.7 0 4.1-0.8 4.1-3.3z"/>
		</g>
		<g id="&lt;Group&gt;">
			<g id="&lt;Group&gt;">
				<g id="&lt;Group&gt;">
					<path id="&lt;Path&gt;" class="s8" d="m82.9 127.8l3.4-2 21.5 34.6-3.4 2z"/>
				</g>
				<g id="&lt;Group&gt;">
					<path id="&lt;Path&gt;" class="s4" d="m104.4 162.4l3.4-2c1.2 14.3-1.2 27.6-7.4 34.7l-3.4 2c6.2-7.2 8.6-20.5 7.4-34.7z"/>
				</g>
				<g id="&lt;Group&gt;">
					<path id="&lt;Path&gt;" class="s1" d="m82.9 127.8l21.5 34.6c1.2 14.2-1.2 27.5-7.4 34.7l-9-9.8-0.6-18.9-3.1-4.4z"/>
				</g>
			</g>
		</g>
		<g id="&lt;Group&gt;">
			<g id="&lt;Group&gt;">
				<g id="&lt;Group&gt;">
					<path id="&lt;Path&gt;" class="s8" d="m48 127.8l-3.4-2-21.6 34.6 3.4 2z"/>
				</g>
				<g id="&lt;Group&gt;">
					<path id="&lt;Path&gt;" class="s4" d="m26.4 162.4l-3.4-2c-1.2 14.3 1.2 27.6 7.4 34.7l3.4 2c-6.2-7.2-8.6-20.5-7.4-34.7z"/>
				</g>
				<g id="&lt;Group&gt;">
					<path id="&lt;Path&gt;" class="s1" d="m48 127.8l-21.6 34.6c-1.2 14.2 1.2 27.5 7.4 34.7l9-9.8 0.6-18.9 3.2-4.4z"/>
				</g>
			</g>
		</g>
	</g>
</svg>